<?xml version="1.0" encoding="utf-8"?>
<!-- Generator: Adobe Illustrator 16.0.4, SVG Export Plug-In . SVG Version: 6.00 Build 0)  -->
<!DOCTYPE svg PUBLIC "-//W3C//DTD SVG 1.1//EN" "http://www.w3.org/Graphics/SVG/1.1/DTD/svg11.dtd">
<svg version="1.1" id="Layer_1" xmlns="http://www.w3.org/2000/svg" xmlns:xlink="http://www.w3.org/1999/xlink" x="0px" y="0px"
	 width="32px" height="32px" viewBox="0 0 32 32" enable-background="new 0 0 32 32" xml:space="preserve">
<g>
	<path fill="#FFFFFF" d="M16.001,30.018C6.487,23.238,1.441,16.93,0.998,11.26l0.003-1.75c0.394-4.871,3.542-7.414,6.298-7.683
		C7.775,1.781,8.23,1.758,8.651,1.758c3.045,0,4.549,1.155,6.584,3.582l0.767,0.915l0.766-0.916
		c2.031-2.427,3.534-3.582,6.582-3.582c0.421,0,0.876,0.023,1.352,0.069c2.757,0.268,5.905,2.812,6.303,7.763l-0.003,1.749
		C30.562,16.932,25.515,23.238,16.001,30.018z"/>
	<path fill="#777777" d="M23.35,2.757c0.389,0,0.812,0.022,1.255,0.065c2.342,0.228,5.02,2.443,5.396,6.771v1.664
		c-0.448,5.23-5.156,11.124-14,17.53c-8.844-6.406-13.552-12.3-14-17.53V9.593c0.376-4.327,3.053-6.542,5.394-6.77
		C7.84,2.78,8.263,2.758,8.651,2.758c2.682,0,3.911,0.951,5.817,3.224l1.534,1.83l1.533-1.831
		C19.438,3.707,20.666,2.757,23.35,2.757 M23.35,0.757c-3.625,0-5.361,1.565-7.349,3.94c-1.99-2.374-3.729-3.939-7.35-3.939
		c-0.452,0-0.934,0.024-1.449,0.074C4.066,1.137,0.442,4.008,0.001,9.51v1.828c0.411,5.264,4.386,11.758,16,19.904
		c11.614-8.146,15.589-14.641,16-19.904V9.509c-0.442-5.502-4.067-8.373-7.203-8.678C24.284,0.781,23.801,0.757,23.35,0.757
		L23.35,0.757z"/>
</g>
</svg>
